# xmcd CD database file
#
# Track frame offsets:
#	150
#	13201
#	26171
#	35752
#	45072
#	60582
#	80176
#	94500
#	102138
#	117034
#	127904
#	148194
#	180915
#	204534
#
# Disc length: 2760 seconds
#
# Revision: 0
# Processed by: cddbd v1.4PL0 Copyright (c) Steve Scherf et al.
# Submitted via: CDex 1.50Beta6
#
DISCID=b30ac60e
DTITLE=Pascal Comelade - L'argot du bruit
DYEAR=1900
DGENRE=Jazz
TTITLE0=L'argot du bruit
TTITLE1=Via-Crucis del Rocanrol
TTITLE2=The sad skinhead
TTITLE3=Domisiladoré
TTITLE4=Marie =un faux-cil dans la tr
TTITLE5=Love too soon
TTITLE6=Le soir du grand soir
TTITLE7=Teresa
TTITLE8=Si
TTITLE9=La cuisson de vos cuisses
TTITLE10=Green eyes
TTITLE11=Sardana dels desemparats
TTITLE12=Toti al soler
TTITLE13=Le grand pianonaniste
EXTD=
EXTT0=
EXTT1=
EXTT2=
EXTT3=
EXTT4=
EXTT5=
EXTT6=
EXTT7=
EXTT8=
EXTT9=
EXTT10=
EXTT11=
EXTT12=
EXTT13=
PLAYORDER=
